<?xml version="1.0" encoding="UTF-8"?>
<svg id="Layer_2" data-name="Layer 2" xmlns="http://www.w3.org/2000/svg" viewBox="0 0 714.63 458.61">
  <defs>
    <style>
      .cls-1 {
        fill: none;
        stroke: #fff;
        stroke-miterlimit: 10;
        stroke-width: 11px;
      }
    </style>
  </defs>
  <g id="Layer_1-2" data-name="Layer 1">
    <g>
      <path class="cls-1" d="M528.43,326.53c-7.1-39.62-28.04-75.84-58.94-101.99-15.35-12.99-32.64-23.12-51.38-30.13-19.36-7.23-39.74-10.92-60.59-10.94h0s-.18-.01-.18-.01l-.02,.17v-.17h-.23c-20.84,.04-41.22,3.72-60.56,10.95-18.75,7.01-36.04,17.14-51.39,30.13-30.9,26.15-51.84,62.37-58.94,101.99l-.03,.2h342.29l-.03-.2Zm-341.86-.14c7.13-39.47,28-75.54,58.8-101.59,15.31-12.96,32.57-23.08,51.27-30.07,19.37-7.23,39.76-10.91,60.62-10.92h.12c20.85,.01,41.25,3.69,60.61,10.92,18.7,6.99,35.96,17.11,51.27,30.07,30.8,26.05,51.67,62.12,58.8,101.59H186.57Z"/>
      <path class="cls-1" d="M5.5,388v65.11h.34v-64.77H121.85v64.77h.34v-65.11H5.5Z"/>
      <path class="cls-1" d="M707.79,326.54c-7.61-87.22-47.46-168.13-112.23-227.85C530.44,38.65,445.89,5.56,357.49,5.5h-.4c-88.39,.07-172.91,33.17-238.02,93.19C54.3,158.41,14.45,239.32,6.85,326.54l-.02,.19H124.19v-.15c7.37-56.03,34.9-107.65,77.53-145.37,43.02-38.05,98.27-59,155.6-59.02,57.32,.02,112.57,20.97,155.59,59.02,42.63,37.72,70.16,89.34,77.52,145.37v.15h117.37v-.19Zm-117.06-.15c-7.39-56.06-34.94-107.7-77.61-145.43-43.07-38.1-98.41-59.09-155.81-59.11-57.41,.02-112.75,21.01-155.82,59.11-42.67,37.73-70.22,89.37-77.61,145.43H7.2c7.64-87.06,47.44-167.84,112.1-227.45C184.39,38.94,268.89,5.87,357.26,5.84h.12c88.36,.03,172.87,33.1,237.95,93.1,64.66,59.61,104.47,140.39,112.1,227.45h-116.69Z"/>
      <path class="cls-1" d="M592.44,388v65.11h.34v-64.77h116.01v64.77h.34v-65.11h-116.69Z"/>
      <path class="cls-1" d="M186.2,388v65.11h.34v-64.77h341.55v64.77h.34v-65.11H186.2Z"/>
    </g>
  </g>
</svg>