<?xml version="1.0" encoding="UTF-8"?>
<svg id="Layer_2" data-name="Layer 2" xmlns="http://www.w3.org/2000/svg" viewBox="0 0 688.96 353.25">
  <defs>
    <style>
      .cls-1 {
        fill: #b9003e;
      }
    </style>
  </defs>
  <g id="Layer_1-2" data-name="Layer 1">
    <g>
      <g>
        <path class="cls-1" d="M136.12,68.89s-.02,0-.02,0h0c-33.05,.02-60.52,23.89-66.15,55.33H202.29c-5.63-31.43-33.1-55.3-66.15-55.32h0s-.02,0-.02,0Z"/>
        <polygon class="cls-1" points="0 296.71 0 353.25 45.04 319.06 45.04 262.51 45.04 148.06 0 148.06 0 296.71"/>
        <polygon class="cls-1" points="136.14 193.35 136.12 193.37 136.1 193.35 136.1 193.38 69.95 243.61 69.95 300.16 136.12 249.92 202.29 300.16 202.29 243.61 136.14 193.38 136.14 193.35"/>
        <path class="cls-1" d="M136.14,0h0s-.02,0-.02,0-.02,0-.02,0h0C65.06,.02,6.57,54.72,.52,124.21H45.82c5.85-44.61,44.12-79.16,90.3-79.17,46.18,.01,84.45,34.56,90.3,79.17h45.3C265.66,54.72,207.18,.02,136.14,0Z"/>
        <polygon class="cls-1" points="227.2 148.06 227.2 262.51 227.2 319.06 272.24 353.25 272.24 296.71 272.24 148.06 227.2 148.06"/>
        <polygon class="cls-1" points="136.1 148.06 69.95 148.06 69.95 193.1 136.1 193.1 136.14 193.1 202.29 193.1 202.29 148.06 136.14 148.06 136.1 148.06"/>
      </g>
      <g>
        <path d="M303.53,149.19h23.87v50.13l50.03-50.13h31.94l-50.03,50.13,50.03,50.13h-31.94l-50.03-50.13v50.13h-23.87v-100.25Z"/>
        <path d="M415.24,149.19h56.5c34.44,0,51.63,17.04,51.63,50.13s-17.19,50.13-51.63,50.13h-56.5v-100.25Zm56.86,78.77c17.21,0,26.69-9.69,26.69-28.79s-9.48-28.5-26.69-28.5h-32.99v57.29h32.99Z"/>
        <path d="M638.12,214.81l25.28-65.62h25.57l-38.48,100.25h-25.56l-22.06-64.9-22.17,64.9h-25.56l-38.48-100.25h25.56l25.28,65.62,23.73-65.62h23.18l23.73,65.62Z"/>
      </g>
      <g>
        <path d="M303.12,287.75c0-11.9,5.3-17.64,16.28-17.64,10.09,0,15.85,3.48,15.85,12.48h-5.56c0-5.93-5.4-7.04-10.28-7.04-7.52,0-10.23,3.68-10.23,12.14s3.73,12.29,10.02,12.29c4.38,0,7.72-3.75,9.46-7.94h-9.12v-5.08h15.97v17.73h-5.32v-8.18c-2.64,5.06-5.98,8.9-12.27,8.9-9.31,0-14.78-5.78-14.78-17.68Z"/>
        <path d="M343.76,270.84h5.81v28.55h20.56v5.32h-26.37v-33.87Z"/>
        <path d="M391.08,270.11c11.59,0,17.18,6.05,17.18,17.66s-5.59,17.66-17.18,17.66-17.18-6.05-17.18-17.66,5.59-17.66,17.18-17.66Zm0,29.88c7.52,0,11.13-4.16,11.13-12.22s-3.6-12.22-11.13-12.22-11.13,4.16-11.13,12.22,3.6,12.22,11.13,12.22Z"/>
        <path d="M416.05,270.84h16.21c9.43,0,12.82,3.31,12.82,9.75,0,3.02-.94,5.3-3.36,6.8,3.1,1.57,4.81,4.11,4.81,7.5,0,6.48-3.34,9.82-13.72,9.82h-16.77v-33.87Zm16.14,14.27c3.94,0,6.85-.92,6.85-4.52,0-3.02-2.85-4.43-6.73-4.43h-10.45v8.95h10.33Zm.7,14.27c4.67,0,7.6-1.09,7.6-4.5,0-2.95-3.6-4.45-7.65-4.45h-10.98v8.95h11.03Z"/>
        <path d="M464.09,270.84h5.78l13.65,33.87h-6.27l-2.32-5.85h-15.87l-2.35,5.85h-6.27l13.65-33.87Zm8.93,22.69l-6.02-14.71-6.02,14.71h12.05Z"/>
        <path d="M488.86,270.84h5.81v28.55h20.56v5.32h-26.37v-33.87Z"/>
      </g>
    </g>
  </g>
</svg>